HIERARCHY
ROOT Hips
{
    OFFSET 0.000000 0.000000 0.000000
    CHANNELS 6 Xposition Yposition Zposition Zrotation Xrotation Yrotation
    JOINT Spine
    {
        OFFSET -0.000000 14.517291 0.000000
        CHANNELS 3 Zrotation Xrotation Yrotation
        JOINT Spine1
        {
            OFFSET -0.000000 37.558300 0.000000
            CHANNELS 3 Zrotation Xrotation Yrotation
            JOINT Neck
            {
                OFFSET -0.000000 37.404057 3.400369
                CHANNELS 3 Zrotation Xrotation Yrotation
                JOINT Head
                {
                    OFFSET -0.000000 24.785618 -3.540803
                    CHANNELS 3 Zrotation Xrotation Yrotation
                    End Site
                    {
                        OFFSET -0.000000 35.408028 0.000000
                    }
                }
            }
            JOINT LeftShoulder
            {
                OFFSET 6.992933 33.973492 -0.192664
                CHANNELS 3 Zrotation Xrotation Yrotation
                JOINT LeftArm
                {
                    OFFSET 21.527611 0.000000 0.000000
                    CHANNELS 3 Zrotation Xrotation Yrotation
                    JOINT LeftForeArm
                    {
                        OFFSET 56.353916 0.000000 0.000000
                        CHANNELS 3 Zrotation Xrotation Yrotation
                        JOINT LeftHand
                        {
                            OFFSET 47.774071 0.000000 0.000000
                            CHANNELS 3 Zrotation Xrotation Yrotation
                            End Site
                            {
                                OFFSET 26.556021 0.000000 0.000000
                            }
                        }
                    }
                }
            }
            JOINT RightShoulder
            {
                OFFSET -7.065357 33.973492 -0.192664
                CHANNELS 3 Zrotation Xrotation Yrotation
                JOINT RightArm
                {
                    OFFSET -21.527611 0.000000 0.000000
                    CHANNELS 3 Zrotation Xrotation Yrotation
                    JOINT RightForeArm
                    {
                        OFFSET -56.353916 0.000000 0.000000
                        CHANNELS 3 Zrotation Xrotation Yrotation
                        JOINT RightHand
                        {
                            OFFSET -47.774071 0.000000 0.000000
                            CHANNELS 3 Zrotation Xrotation Yrotation
                            End Site
                            {
                                OFFSET -26.556021 0.000000 0.000000
                            }
                        }
                    }
                }
            }
        }
    }
    JOINT LeftUpLeg
    {
        OFFSET 17.704014 0.000000 0.000000
        CHANNELS 3 Zrotation Xrotation Yrotation
        JOINT LeftLeg
        {
            OFFSET -0.000000 -81.181816 0.000000
            CHANNELS 3 Zrotation Xrotation Yrotation
            JOINT LeftFoot
            {
                OFFSET -0.000000 -62.821102 0.000000
                CHANNELS 3 Zrotation Xrotation Yrotation
                JOINT LeftToeBase
                {
                    OFFSET -0.000000 -11.507608 26.556021
                    CHANNELS 3 Zrotation Xrotation Yrotation
                    End Site
                    {
                        OFFSET -0.000000 0.000000 7.081605
                    }
                }
            }
        }
    }
    JOINT RightUpLeg
    {
        OFFSET -17.704014 0.000000 0.000000
        CHANNELS 3 Zrotation Xrotation Yrotation
        JOINT RightLeg
        {
            OFFSET -0.000000 -81.181816 0.000000
            CHANNELS 3 Zrotation Xrotation Yrotation
            JOINT RightFoot
            {
                OFFSET -0.000000 -62.821102 0.000000
                CHANNELS 3 Zrotation Xrotation Yrotation
                JOINT RightToeBase
                {
                    OFFSET -0.000000 -11.507608 26.556021
                    CHANNELS 3 Zrotation Xrotation Yrotation
                    End Site
                    {
                        OFFSET -0.000000 0.000000 7.081605
                    }
                }
            }
        }
    }
}
MOTION
Frames:    13
Frame Time:    0.008333
-29.599390    151.252563    -32.635647    2.244480    -0.316676    19.127420    -0.808142    2.100109    7.833495    -1.216855    2.639814    2.635624    -5.520400    3.362021    -14.382100    14.321425    -7.461375    -11.395893    0.330395    6.110433    -10.699591    -27.579792    21.951834    -49.510414    -1.422728    -30.320702    -99.974976    -14.144419    -28.731705    -27.794369    0.702778    12.652312    1.490083    36.621864    12.217934    51.528912    -35.152355    -29.240040    50.387672    9.600168    -10.570786    32.040588    -1.493063    -31.392982    -27.525732    -12.437970    26.219069    -22.235243    -7.885697    -1.656395    34.485943    0.000000    0.000000    0.000000    -0.536791    9.181059    -15.069399    3.129436    29.442482    -3.891238    -0.011285    -33.649902    -7.562253    0.000000    0.000000    0.000000    
-29.600996    151.239792    -32.634811    2.252588    -0.316895    19.159447    -0.818701    2.102569    7.832022    -1.221172    2.643508    2.635207    -5.476640    3.346527    -14.390313    14.287703    -7.456954    -11.416438    0.388233    6.094748    -10.754207    -27.529533    21.966944    -50.023540    -1.174235    -30.726166    -99.864487    -14.140519    -28.877371    -27.845224    0.726295    12.647099    1.497616    36.591846    12.224916    51.522938    -35.224079    -29.273426    50.285995    9.625356    -10.598722    32.094593    -1.516487    -31.399532    -27.537088    -12.439585    26.234249    -22.241812    -7.870066    -1.645545    34.461823    0.000000    0.000000    0.000000    -0.542980    9.150721    -15.113390    2.581008    29.608341    -2.711150    0.445132    -33.677059    -7.555705    0.000000    0.000000    0.000000    
-29.603546    151.227249    -32.633774    2.260787    -0.314542    19.196587    -0.828908    2.113200    7.825106    -1.223841    2.633435    2.632788    -5.458457    3.307020    -14.400398    14.274179    -7.415508    -11.435057    0.431822    6.076248    -10.792905    -27.483284    21.986551    -50.528709    -0.919231    -31.164118    -99.751419    -14.300566    -29.016657    -27.889303    0.739275    12.645422    1.510124    36.589596    12.217595    51.506325    -35.266941    -29.293547    50.229515    9.614545    -10.623308    32.104401    -1.543061    -31.407415    -27.560720    -12.444225    26.241846    -22.260984    -7.853556    -1.633823    34.466557    0.000000    0.000000    0.000000    -0.547843    9.172406    -15.168633    3.125210    29.499823    -3.889410    0.000965    -33.696434    -7.545993    0.000000    0.000000    0.000000    
-29.607033    151.216232    -32.630478    2.269345    -0.312781    19.233759    -0.837813    2.116101    7.817569    -1.230039    2.633426    2.630337    -5.422583    3.287845    -14.411045    14.243780    -7.404861    -11.457100    0.481930    6.057769    -10.836793    -27.446388    21.985348    -51.012318    -0.718593    -31.522108    -99.678459    -14.307666    -29.172241    -27.890373    0.758868    12.644558    1.526194    36.579224    12.210963    51.494476    -35.326378    -29.317730    50.151020    9.611873    -10.651010    32.104992    -1.570394    -31.415863    -27.580809    -12.449268    26.256552    -22.259092    -7.826638    -1.615857    34.445713    0.000000    0.000000    0.000000    -0.552149    9.169137    -15.199924    3.128690    29.524925    -3.875640    0.002571    -33.722504    -7.567287    0.000000    0.000000    0.000000    
-29.612900    151.204651    -32.626991    2.271677    -0.313326    19.270279    -0.841910    2.124305    7.808542    -1.235790    2.626305    2.627361    -5.410148    3.264728    -14.421371    14.243332    -7.381193    -11.471245    0.534600    6.037687    -10.870438    -27.366659    22.044552    -51.513138    -0.401598    -31.999350    -99.525970    -14.413095    -29.302645    -27.952316    0.772611    12.635549    1.544266    36.564934    12.223854    51.478012    -35.386425    -29.346964    50.069878    9.608667    -10.684488    32.115906    -1.589890    -31.427311    -27.601738    -12.455978    26.275579    -22.262922    -7.811766    -1.609472    34.429588    0.000000    0.000000    0.000000    -0.547443    9.164551    -15.239592    3.129031    29.553640    -3.881721    -0.004197    -33.735020    -7.576973    0.000000    0.000000    0.000000    
-29.618225    151.195587    -32.621826    2.277457    -0.311270    19.310093    -0.845896    2.126404    7.800956    -1.244066    2.630323    2.625047    -5.378314    3.246001    -14.434026    14.218740    -7.385623    -11.491931    0.582460    6.012910    -10.908378    -27.311455    22.049458    -51.978012    -0.204001    -32.376396    -99.443138    -14.485438    -29.462465    -28.025461    0.788332    12.623456    1.565820    36.556362    12.229361    51.455429    -35.457241    -29.379015    49.987095    9.602946    -10.718041    32.115459    -1.612647    -31.436607    -27.631758    -12.460403    26.284088    -22.286755    -7.801529    -1.598063    34.430660    0.000000    0.000000    0.000000    -0.546589    9.162548    -15.274337    3.126920    29.574318    -3.879126    0.005687    -33.748108    -7.573662    0.000000    0.000000    0.000000    
-29.627892    151.185257    -32.615246    2.277286    -0.311781    19.347189    -0.850051    2.128279    7.798072    -1.244747    2.629807    2.624060    -5.358939    3.234226    -14.447268    14.205818    -7.382849    -11.510551    0.623444    5.995492    -10.951491    -27.245979    22.064695    -52.445732    -0.029546    -32.767357    -99.384125    -14.505366    -29.685129    -28.002817    0.808473    12.628309    1.582903    36.541298    12.223416    51.436729    -35.512680    -29.419281    49.919243    9.625986    -10.752221    32.145016    -1.623453    -31.448494    -27.659143    -12.478096    26.300049    -22.285913    -7.791796    -1.600154    34.418259    0.000000    0.000000    0.000000    -0.531631    9.162532    -15.321510    3.110782    29.586790    -3.882715    0.002395    -33.758080    -7.567621    0.000000    0.000000    0.000000    
-29.638046    151.174713    -32.611622    2.272811    -0.308716    19.386450    -0.842523    2.129830    7.796192    -1.270756    2.625746    2.624019    -5.297976    3.245846    -14.464894    14.174002    -7.419522    -11.539022    0.695522    5.984234    -10.987721    -27.205271    22.058369    -52.919716    0.202789    -33.127762    -99.265800    -14.547804    -29.808134    -28.031193    0.849682    12.618359    1.605725    36.523041    12.224640    51.395882    -35.590942    -29.440353    49.840191    9.625203    -10.768333    32.128433    -1.639362    -31.468008    -27.683825    -12.483919    26.320932    -22.297642    -7.781805    -1.595070    34.416836    0.000000    0.000000    0.000000    -0.521500    9.128154    -15.374197    2.559360    29.747313    -2.698025    0.456551    -33.773575    -7.555523    0.000000    0.000000    0.000000    
-29.650343    151.166061    -32.601662    2.269031    -0.311089    19.426601    -0.851879    2.127706    7.797044    -1.259326    2.631537    2.624081    -5.285166    3.230451    -14.485800    14.173825    -7.411744    -11.562715    0.732658    5.971038    -11.031557    -27.143841    22.032049    -53.348549    0.383021    -33.455128    -99.192474    -14.573015    -29.952063    -28.089025    0.865123    12.624942    1.620384    36.493179    12.234149    51.379757    -35.685928    -29.484968    49.735912    9.632359    -10.807263    32.144455    -1.649505    -31.477598    -27.702681    -12.487757    26.338568    -22.320869    -7.773716    -1.594418    34.413734    0.000000    0.000000    0.000000    -0.499085    9.165825    -15.409966    3.097519    29.598225    -3.905761    0.024411    -33.772049    -7.537412    0.000000    0.000000    0.000000    
-29.661974    151.159637    -32.592880    2.264135    -0.313075    19.470772    -0.841276    2.136145    7.793869    -1.279548    2.614461    2.623312    -5.278349    3.262528    -14.506478    14.203058    -7.435249    -11.577909    0.775792    5.961658    -11.079136    -27.091660    22.007298    -53.772690    0.540878    -33.771568    -99.121895    -14.575170    -30.117369    -28.117119    0.894816    12.645755    1.647640    36.496254    12.201625    51.346626    -35.739269    -29.489561    49.672558    9.626610    -10.811249    32.148647    -1.665720    -31.491762    -27.722837    -12.493545    26.364452    -22.338839    -7.753975    -1.582919    34.410740    0.000000    0.000000    0.000000    -0.475510    9.168366    -15.468218    3.069184    29.608583    -3.868868    0.051716    -33.776947    -7.546998    0.000000    0.000000    0.000000    
-29.671652    151.153900    -32.583530    2.261817    -0.314954    19.513279    -0.824193    2.146568    7.781605    -1.321628    2.603143    2.620144    -5.243401    3.273352    -14.522781    14.208574    -7.450713    -11.596720    0.829909    5.952365    -11.106633    -27.064768    22.015669    -54.257412    0.782391    -34.173546    -98.960533    -14.694395    -30.265684    -28.131601    0.930615    12.649044    1.683057    36.489120    12.197859    51.305813    -35.798084    -29.502548    49.607048    9.614097    -10.826115    32.137356    -1.682872    -31.497137    -27.744915    -12.489800    26.377192    -22.366343    -7.726722    -1.568561    34.400505    0.000000    0.000000    0.000000    -0.459143    9.174696    -15.524724    3.061840    29.612909    -3.882220    0.061595    -33.771099    -7.527946    0.000000    0.000000    0.000000    
-29.680317    151.151733    -32.571434    2.262269    -0.318232    19.554577    -0.812321    2.161799    7.776674    -1.349342    2.642605    2.619676    -5.246686    3.154255    -14.557428    14.219396    -7.380670    -11.633254    0.900424    5.878082    -11.064572    -26.989758    22.048882    -54.759830    0.945200    -34.533115    -98.899040    -14.764442    -30.458948    -28.164171    0.909307    12.630549    1.631272    36.494827    12.238648    51.362827    -35.877850    -29.553577    49.537628    9.667938    -10.853346    32.154579    -1.703146    -31.500154    -27.751942    -12.481833    26.397148    -22.398426    -7.715816    -1.563751    34.403141    0.000000    0.000000    0.000000    -0.444640    9.183747    -15.580585    3.046039    29.615564    -3.872132    0.075075    -33.772781    -7.511931    0.000000    0.000000    0.000000    
-29.692612    151.150162    -32.558205    2.259056    -0.317255    19.593536    -0.813385    2.160555    7.775238    -1.357681    2.649173    2.619463    -5.241607    3.144742    -14.579881    14.243451    -7.380309    -11.652093    0.947222    5.864572    -11.081044    -26.942053    22.012165    -55.187958    1.316063    -34.759987    -98.690315    -14.600605    -30.352905    -28.257494    0.910825    12.635986    1.644573    36.505085    12.229252    51.344090    -35.920761    -29.566439    49.482040    9.672034    -10.867167    32.149113    -1.719831    -31.502291    -27.751120    -12.459004    26.408415    -22.429491    -7.711639    -1.556395    34.385883    0.000000    0.000000    0.000000    -0.428587    9.157255    -15.620244    2.497244    29.762028    -2.714168    0.545148    -33.766865    -7.500831    0.000000    0.000000    0.000000    
